<svg xmlns="http://www.w3.org/2000/svg" viewBox="0 0 1000 1000">
    <path fill="#16171b" d="M704.08,695.26a97.38,97.38,0,0,1-42.83-10.08v84.4h71.8a65.06,65.06,0,0,0,65.51-65.5v-63C778.4,673.84,744.39,695.26,704.08,695.26Z" />
    <path fill="#16171b" d="M586.92,651.17V495c-21.41,29-50.39,68-57.95,78.1C536.53,583.14,564.25,620.93,586.92,651.17Z" />
    <path fill="#16171b" d="M733.05,230.42H265.69a65.06,65.06,0,0,0-65.51,65.5V704.08a65.06,65.06,0,0,0,65.51,65.5H586.92v-78.1H527.71s-29-39.05-41.57-58c-13.85,18.9-41.57,58-41.57,58H356.39s75.58-102,86.92-118.42C432,556.69,361.43,461,361.43,461h88.18s25.2,34,37.79,51.65C500,495,525.19,461,525.19,461h103.3s7.56,13.86,10.08,20.15c18.9-15.11,42.83-23.93,66.77-23.93,39,0,74.32,21.41,94.48,54.17V295.92C798.56,259.39,769.58,230.42,733.05,230.42Z" />
    <path fill="#16171b" d="M740.61,576.84c0-26.45-17.64-47.87-39.05-47.87-22.68,0-40.31,21.42-40.31,47.87s17.63,47.87,40.31,47.87C723,624.71,740.61,603.3,740.61,576.84Z" />
</svg>