<?xml version="1.0" encoding="UTF-8"?>
<svg viewBox="0 0 1000 1000" xmlns="http://www.w3.org/2000/svg">
    <rect x=".5" y="-.5" width="999" height="1e3" fill="#fff000" />
    <polygon points="200.08 400 500.08 200 799.92 400 443.85 637.39 381.23 595.75 668.77 404.25 493.85 287.54 412.54 341.64 475 383.28 325 483.28" fill="#0058a6" />
    <polygon points="799.92 600 499.92 799.85 200.08 600 556.31 362.61 618.77 404.25 331.23 595.75 506.31 712.46 587.46 658.21 525 616.57 675 516.72" fill="#0058a6" />
    <polygon points="799.92 283.44 737.46 325.08 675 283.44 799.92 200" fill="#0058a6" />
    <polygon points="200.08 716.57 262.54 674.92 325 716.57 200.08 800" fill="#0058a6" />
</svg>
