<?xml version="1.0" encoding="UTF-8"?>
<svg xmlns="http://www.w3.org/2000/svg" viewBox="0 0 1000 1000">
    <rect fill="#006bab" width="1000" height="1000" />
    <path fill="#fff" fill-rule="evenodd" d="M383.55,477,368,515.7h21.5l-5.89-38.88-.07.16Zm-82.32,88.88L365,434.64h48.18L440,565.86H397.72l-3.11-17.49h-41l-9.45,17.49Zm158.83,0,18.46-131.22h42.64L502.69,565.86Zm283.52-89L728,515.7h21.49l-5.89-38.88Zm-82.38,89,63.74-131.22h48.18L800,565.86H757.69l-3.11-17.49H713.53l-9.44,17.49Z" />
    <polygon fill="#fff" fill-rule="evenodd" points="566.96 504.5 620.38 504.5 656.97 565.12 603.55 565.12 566.96 504.5 566.96 504.5" />
    <polygon fill="#ef7d1a" fill-rule="evenodd" points="572.51 495.19 627.72 495.19 675.67 434.83 620.46 434.83 572.51 495.19 572.51 495.19" />
    <polygon fill="#ef7d1a" fill-rule="evenodd" points="517.3 565.49 572.51 565.49 620.46 504.39 565.25 504.39 517.3 565.49 517.3 565.49" />
    <polygon fill="#fff" fill-rule="evenodd" points="537.21 434.09 588.74 434.09 624.04 495.19 572.51 495.19 537.21 434.09 537.21 434.09" />
    <path fill="#fff" fill-rule="evenodd" d="M302.5,439.34l-4.1,38.59c-15.71-21.67-52.13-6.72-55,20.28-3.63,34.28,31.41,42.27,50.49,22.09L289.79,559A93,93,0,0,1,273,565.42a68.35,68.35,0,0,1-16.38,2.36,63.68,63.68,0,0,1-18.6-2.14A45.36,45.36,0,0,1,223,558.33a53.55,53.55,0,0,1-18.68-24q-5.75-14.65-3.79-33.12A81.35,81.35,0,0,1,208,474a78.81,78.81,0,0,1,16.36-22.36,69.59,69.59,0,0,1,21.47-14.59,68,68,0,0,1,25.24-5.19A61.88,61.88,0,0,1,287,433.58a70.71,70.71,0,0,1,15.46,5.76Z" />
</svg>