<svg xmlns="http://www.w3.org/2000/svg" viewBox="0 0 1000 1000">
    <rect fill="#2f0549" width="1000" height="1000" />
    <path fill="#fff" d="M200.36,471c-.81,14.73,0,29.68,0,44.27v141.3h79.21s.05-69.61,0-129.45c0-40.28-.3-76.18,0-83.55,1.4-34.92,11-57.74,28.83-76.4-1.37-.05-2.74-.09-4.13-.09a104.8,104.8,0,0,0-92.44,56.41C204.11,438.47,201.25,454.59,200.36,471Z" />
    <path fill="#fff" d="M382,335.84c-29.63,0-54.82,11.59-73.81,31.42,59,0,97.24,40.2,99.38,104.2.48,14.69.64,93.27.64,93.27v91.83h79.21V532.42c0-37.52.3-70-2.32-92.37C477.8,377.55,439.6,335.84,382,335.84Z" />
    <path fill="#fff" d="M799.64,529c.81-14.73,0-29.68,0-44.27V343.44H720.43s0,69.61,0,129.45c0,40.28.3,76.18,0,83.55-1.4,34.92-11,57.74-28.83,76.4,1.37,0,2.74.09,4.13.09a104.8,104.8,0,0,0,92.44-56.41C795.89,561.53,798.75,545.41,799.64,529Z" />
    <path fill="#fff" d="M618,664.16c29.63,0,54.82-11.59,73.81-31.42-59,0-97.24-40.2-99.38-104.2-.48-14.69-.69-51.13-.69-93.35V343.37l-79.16.07V467.58c0,37.52-.3,70,2.32,92.37C522.2,622.45,560.4,664.16,618,664.16Z" />
</svg>