<?xml version="1.0" encoding="UTF-8"?>
<svg viewBox="0 0 1000 1000" xmlns="http://www.w3.org/2000/svg">
    <rect fill='#21c25e' width="1e3" height="1e3" />
    <path fill='#fff' fill-rule="evenodd" d="M296.77,408.49v146h95.16A77.24,77.24,0,0,0,446,532.58a71.16,71.16,0,0,0,0-102.21,77.24,77.24,0,0,0-54.06-21.88ZM199.89,761.91V408.49H296.6V318.07h95.33a167.25,167.25,0,0,1,116.94,47.67c30.27,29.59,49.18,70.4,49.18,115.74s-18.91,86.14-49.18,115.74a167.28,167.28,0,0,1-116.94,47.66H296.77v117Z" />
    <path fill='#fff' fill-rule="evenodd" d="M644.45,268.77v125h125v-125Zm30.68,30.67h63.62v63.62H675.13V299.44Zm-61.36-61.35H800.11V424.42H613.77V238.09Z" />
</svg>
