<svg xmlns="http://www.w3.org/2000/svg" viewBox="0 0 1000 1000">
    <rect fill="#e64111" x="203.27" y="449.84" width="39.54" height="150.56" />
    <path fill="#e64111" fill-rule="evenodd" d="M320.37,600.4h-40.3V453.33c66.91-14.39,132.16-8.63,132.75,46.58L413.9,600.4H372.83v-92A21.72,21.72,0,0,0,359.44,488C348.3,483.23,334,486,320.37,486.2Z" />
    <path fill="#e64111" fill-rule="evenodd" d="M439.13,552.17c-.37-47.63,1.42-95.26.31-142.89l40.05-20.91v62.22h50.7v38.53H479.62c1.95,54-13.79,97.1,50.57,67.93l18.25,34.22c-16.67,9.5-35.13,13.39-54.5,14.45a55,55,0,0,1-25.9-6.31,52.58,52.58,0,0,1-28.91-47.24" />
    <path fill="#e64111" fill-rule="evenodd" d="M642.23,449.5c-89.61-28.18-114.45,68.44-88.2,120.07,16.37,32.2,58.23,43.74,129,26L671,560c-32.7,6.06-58,10.68-74.33-4.12-11-9.69-10.84-23.71-9.95-42.65,1.47-27.84,39.75-39.24,55.28-17a3,3,0,0,1,.4,2.55,3.1,3.1,0,0,1-1.64,2l-41.62,20.77L616.62,556l69.45-34.48c0-39-15-60.59-43.84-72.06" />
    <path fill="#e64111" fill-rule="evenodd" d="M705.84,601.88V455.12c28.88-9.09,60.38-10.29,94.16-4.69L788,488.2c-12.55-2.25-25.28-5.57-41.88-2.41L746,601.88Z" />
    <text fill="#e64111" style="font-size:37.66px;font-family:Arial-BoldMT, Arial;font-weight:700;" transform="translate(200.79 422.23)">B</text>
    <text fill="#e64111" style="font-size:37.66px;font-family:Arial-BoldMT, Arial;font-weight:700;" transform="translate(245.74 422.23)">A</text>
    <text fill="#e64111" style="font-size:37.66px;font-family:Arial-BoldMT, Arial;font-weight:700;" transform="translate(290.69 422.23)">N</text>
    <text fill="#e64111" style="font-size:37.66px;font-family:Arial-BoldMT, Arial;font-weight:700;" transform="translate(335.65 422.23)">C</text>
    <text fill="#e64111" style="font-size:37.66px;font-family:Arial-BoldMT, Arial;font-weight:700;" transform="translate(380.6 422.23)">O</text>
</svg>