<svg xmlns="http://www.w3.org/2000/svg" viewBox="0 0 1000 1000">
    <rect width="1000" height="1000" />
    <path fill="#fafafa"
        d="M402.53,554.52q15.72-13.78,20.54-36.16H526.59q-7.12,64-51.55,103.7T365.66,661.74q-47.37,0-85.3-20.79a150.39,150.39,0,0,1-59.2-57.84q-21.25-37-21.27-83.11t21.27-83.11a150.32,150.32,0,0,1,59.2-57.84q37.93-20.79,85.3-20.79,63.88,0,107.91,38.3t52,100.39h-102q-6.5-20.47-22.22-33a55.13,55.13,0,0,0-35.21-12.48q-26.81,0-43.26,18.88T306.34,500q0,30.5,16.56,49.39t43.16,18.89A53.69,53.69,0,0,0,402.53,554.52Zm367.41-84.11q30.15,28.92,30.17,74.77,0,52.41-34.72,84.49t-91.5,32.07q-56.14,0-91.29-32.19t-35.16-83.47a173.87,173.87,0,0,1,9.65-56.35q9.64-28.35,29.84-62l47.59-79.1,100.53,0L678.76,442q8.43-.45,13.31-.45Q739.77,441.5,769.94,470.41ZM702.06,573.87q10.86-11.05,10.86-28.69t-10.86-28.91Q691.19,505,673.88,505t-28.17,11.29q-10.86,11.29-10.87,28.91t10.87,28.69q10.88,11.07,28.17,11.07t28.19-11.07Z" />
</svg>