<svg xmlns="http://www.w3.org/2000/svg" viewBox="0 0 1000 1000">
    <path fill="#e51e36" d="M508.81,251.19c0,67.57,113.32,142.64,113.32,219.79A46.82,46.82,0,0,1,619,486.39c106,22.36,181,75.07,181,136.82,0,83-133.8,151.7-299.61,151.7-169.35,0-300.6-67.54-300.6-148.52,0-61.7,81.32-111.8,179.46-138.36,0,34.05,111.65,142.12,114.34,185.72.32,5,1.29,9.24,0,14.38,24.15-12.76,24.15-52.7,24.15-52.7,0-94.72-108.61-136.76-108.61-229.91,0-36.21,16.82-62.79,32-70.23v26.06c0,67.59,117.5,143.16,117.5,204.91v20.23C586,575.87,586,525.27,586,525.27c0-85.15-109.13-132.53-109.13-229.93,0-36.16,16.77-62.76,32-70.25Z" />
</svg>