<svg xmlns="http://www.w3.org/2000/svg" viewBox="0 0 1000 1000">
    <path fill='#fe3e6d'
        d="M482.21,200a234.75,234.75,0,0,0-32.64,3.2A300.56,300.56,0,0,0,214.62,406.13c-24,73.43-18.23,155.72,15.47,224.85,32,65.68,88.6,118.86,156.14,146.62a302,302,0,0,0,179.89,15.15c72.45-16.27,137.33-60.17,179.72-120.37A303,303,0,0,0,800,518.23a17.26,17.26,0,0,0-17.18-18.29h-3.12c-21,0-52.95-.12-72.24-.12a17.2,17.2,0,0,0-17.19,15.84,189.2,189.2,0,0,1-5,30.38c-11.58,46.19-41.3,87.6-81.34,113.64A192.35,192.35,0,0,1,464.63,687c-47.57-9-90.62-36.7-118.83-75.53A190.86,190.86,0,0,1,484.74,309.24a17.26,17.26,0,0,0,15.81-17.19v-5.24c0-20.36,0-50.43,0-69.59a17.25,17.25,0,0,0-5.45-12.6A18.28,18.28,0,0,0,482.21,200Zm317.41,96.79a96.07,96.07,0,1,0-96.07,96.14A96.15,96.15,0,0,0,799.62,296.79Z" />
</svg>