<?xml version="1.0" encoding="UTF-8"?>
<svg xmlns="http://www.w3.org/2000/svg" viewBox="0 0 1000 1000">
    <rect fill="#312682" width="1000" height="1000" />
    <path fill="#ffec00" fill-rule="evenodd" d="M764.49,366.37H711.1l-22,41.84h37.43l38-41.84Zm35.51,68H748V546.65c0,34.4-23.12,44.31-40.18,44.31-16.24,0-34.13-6.05-33.86-36.05V434.36h-52l-.28,128c0,49.54,28.35,71.56,67.43,71.56,27.25.27,48.44-11.56,60.28-32.48h.55v27.25H800V434.36Z" />
    <path fill="#ffec00" fill-rule="evenodd" d="M581.19,485.82c0-48.16-50.64-56.69-78.71-56.69-40.46,0-82.57,8.53-88.9,68h50.36c1.66-11.29,6.34-27,32.21-27,13.48,0,34.4,1.1,34.4,22.56,0,11-10.18,14.32-18.44,15.42L465.32,515c-33.3,4.68-58.07,24.22-58.07,62.2,0,40.18,30.82,56.7,60.27,56.7,35.78,0,52.57-16.24,64.13-28.08,1.1,10.74,1.93,13.49,5,22.85l44.86-.28c0-21.47-.28-37.15-.28-37.43V485.82Z" />
    <path fill="#ffec00" fill-rule="evenodd" d="M359.36,366.37h-52v67.71h-27v36.61h26.69V588.76c0,25,8,42.11,53.12,42.11h6.88c8.26,0,16.52-.55,24.5-.83v-38.8c-3.58.27-7.43.82-10.73.82-21.2,0-21.75-4.4-21.75-16l.28-105.41h32.47V434.08H359.36V366.37Z" />
    <polygon fill="#ffec00" fill-rule="evenodd" points="256.42 366.1 200.28 366.1 200 628.39 256.15 628.39 256.42 366.1 256.42 366.1" />
    <path fill="#312782" fill-rule="evenodd" d="M530.55,559V534c-5.23,4.13-14,7.43-35.5,10.46-19.55,3.3-35.51,8.25-35.51,29.45,0,17.61,14.31,23.39,24.22,23.39,23.12,0,46.79-14.59,46.79-38.26Z" />
</svg>