<svg xmlns="http://www.w3.org/2000/svg" viewBox="0 0 1000 1000">
    <polygon fill="#dc0432" points="478.9 800 436.43 800 436.43 582.38 478.9 582.38 478.9 800 478.9 800" />
    <polygon fill="#dc0432" points="587.1 800 517.53 800 517.53 501.29 587.1 501.29 587.1 800 587.1 800" />
    <path fill="#dc0432" d="M398.33,293.23s70.13-68.56,188.33-46c0,0,52,8.09,91.87,43.5,0,0,5.93,5.55,10.49,1,0,0,5.78-4.54-.66-11.32,0,0-34.26-47.54-101.94-68.55,0,0-92.93-33.29-188.42,11.68,0,0-58.77,24.35-91.36,90.71,0,0-46.47,15-81.3,34.57,0,0-10.3,4.06-6.41,12.07,0,0,3.33,5.74,12.34,1.47,0,0,32.35-11.16,63.54-18.12,0,0-25.08,65.05,1.1,145.75,11.66,36,32.93,72.54,65.42,102,0,0,5.29,5.56,11.07,1.76,0,0,5-3.64,1.48-9.6,0,0-25.91-39-36-94.47-8.39-45.25-4.43-107.7,27-157.21,0,0,119.6-16.7,221.54,21.7,0,0,173.16,56.49,129.57,161.29,0,0-12.68,36.43-60.47,69.33,0,0-8,4.67-3.65,11.35,0,0,3.6,5.22,11.79,1.89,0,0,73.2-23.82,104.79-82.63,0,0,64.09-98.06-87-178.07,0,0-41.56-22.21-95-34.08,0,0-96.23-23.81-188.09-10" />
</svg>